<?xml version="1.0" standalone="no"?>
<!DOCTYPE svg PUBLIC "-//W3C//DTD SVG 20010904//EN"
 "http://www.w3.org/TR/2001/REC-SVG-20010904/DTD/svg10.dtd">
<svg version="1.0" xmlns="http://www.w3.org/2000/svg"
 width="1024.000000pt" height="1024.000000pt" viewBox="0 0 1024.000000 1024.000000"
 preserveAspectRatio="xMidYMid meet">

<g transform="translate(0.000000,1024.000000) scale(0.100000,-0.100000)"
fill="#000000" stroke="none">
<path d="M1023 9066 l-28 -24 2 -874 c1 -480 5 -889 8 -908 6 -29 50 -78 255
-285 136 -137 256 -264 267 -281 21 -36 21 -42 -37 -894 -16 -245 -43 -645
-60 -890 -16 -245 -37 -548 -45 -675 -39 -576 -115 -1686 -121 -1745 -9 -106
-3 -100 -102 -100 -107 0 -196 -20 -276 -62 -82 -44 -195 -157 -230 -231 -51
-109 -56 -158 -56 -576 l0 -384 25 -33 c15 -20 41 -38 63 -44 26 -8 1325 -10
4444 -8 l4407 3 28 21 c15 11 38 36 51 54 22 33 22 35 22 409 0 421 -4 454
-66 572 -39 74 -130 169 -205 212 -66 39 -187 67 -285 67 -109 0 -118 11 -128
142 -7 98 -68 1100 -86 1418 -16 275 -85 1345 -120 1860 -23 341 -50 803 -50
842 0 22 49 77 259 290 142 145 264 274 272 288 12 21 15 173 17 899 2 643 0
881 -8 902 -26 62 11 60 -979 57 l-901 -3 -32 -33 -33 -32 -5 -455 -5 -455
-33 -32 -32 -33 -543 -3 c-528 -2 -543 -2 -575 18 -18 11 -37 32 -42 46 -6 15
-10 201 -11 452 0 475 -1 486 -59 514 -32 17 -95 18 -878 18 l-844 0 -34 -34
-34 -34 0 -441 c0 -365 -3 -448 -15 -477 -27 -64 -23 -64 -610 -64 -572 0
-559 -1 -604 56 -21 26 -21 36 -21 471 0 490 0 491 -61 512 -23 8 -300 11
-935 11 l-903 0 -28 -24z m4347 -2171 c277 -39 543 -150 777 -323 114 -84 291
-264 372 -378 118 -167 220 -403 273 -632 l22 -97 3 -1805 c3 -1354 1 -1812
-8 -1833 -25 -61 82 -57 -1684 -57 -1735 0 -1667 -2 -1694 49 -8 15 -11 523
-8 1828 3 1799 3 1808 24 1903 58 259 146 453 303 665 266 360 648 600 1075
674 138 24 395 27 545 6z"/>
<path d="M4927 6255 c-295 -56 -581 -291 -687 -566 -48 -125 -62 -201 -63
-334 -1 -148 24 -258 87 -389 77 -160 180 -279 328 -377 75 -49 226 -119 257
-119 12 0 16 -303 19 -1360 1 -485 6 -809 12 -831 22 -78 71 -99 233 -99 185
0 217 23 217 156 0 56 4 77 19 95 18 23 27 24 173 30 163 6 189 12 228 54 24
26 25 32 25 159 0 92 -4 141 -13 158 -22 41 -72 58 -167 58 -110 0 -115 5
-115 119 0 114 7 121 114 121 103 0 141 17 155 67 6 21 11 73 11 115 0 72 -2
80 -29 110 l-29 33 -154 5 c-166 6 -189 13 -213 61 -23 44 -18 921 5 942 8 8
53 27 100 43 157 53 327 190 430 347 111 167 156 335 147 537 -8 167 -46 293
-135 442 -114 193 -276 319 -515 400 -82 28 -107 31 -227 34 -89 2 -161 -2
-213 -11z m304 -381 c139 -41 290 -157 351 -269 60 -113 77 -282 38 -406 -66
-214 -287 -379 -508 -379 -258 0 -480 171 -537 412 -44 186 5 352 143 487 80
79 165 130 258 156 68 18 190 18 255 -1z"/>
</g>
</svg>
